<svg xmlns="http://www.w3.org/2000/svg" width="1049" height="816" viewBox="0 0 1049 816" version="1.1"><path d="M 349 57.500 L 349 115 290.500 115 L 232 115 232 173.500 L 232 232 174 232 L 116 232 116 290 L 116 348 58 348 L 0 348 0 581.500 L 0 815 58 815 L 116 815 116 756.500 L 116 698 174 698 L 232 698 232 756.500 L 232 815 290.500 815 L 349 815 349 756.500 L 349 698 407.500 698 L 466 698 466 756.500 L 466 815 524 815 L 582 815 582 756.500 L 582 698 640.500 698 L 699 698 699 756.500 L 699 815 757 815 L 815 815 815 756.500 L 815 698 873.500 698 L 932 698 932 756.508 L 932 815.016 990.750 814.758 L 1049.500 814.500 1049.752 581 L 1050.005 347.500 991.002 347.766 L 932 348.031 932 290.016 L 932 232 873.500 232 L 815 232 815 173.500 L 815 115 757 115 L 699 115 699 57.500 L 699 0 640.500 0 L 582 0 582 57.500 L 582 115 524 115 L 466 115 466 57.500 L 466 0 407.500 0 L 349 0 349 57.500 M 0.492 581.500 C 0.492 710.200, 0.608 762.701, 0.750 698.170 C 0.892 633.638, 0.892 528.338, 0.750 464.170 C 0.608 400.001, 0.492 452.800, 0.492 581.500 M 232 406.500 L 232 465 349 465 L 466 465 466 406.500 L 466 348 349 348 L 232 348 232 406.500 M 582 406.500 L 582 465 698.500 465 L 815 465 815 406.500 L 815 348 698.500 348 L 582 348 582 406.500" stroke="none" fill="#5cac54" fill-rule="evenodd"/></svg>