<svg xmlns="http://www.w3.org/2000/svg" width="927" height="925" viewBox="0 0 927 925" version="1.1"><path d="M 205 50.500 L 205 101 256.500 101 L 308 101 308 152.500 L 308 204 256.500 204 L 205 204 205 255.500 L 205 307 153.500 307 L 102 307 102 358.500 L 102 410 51 410 L 0 410 0 564.500 L 0 719 51 719 L 102 719 102 616 L 102 513 153.500 513 L 205 513 205 616 L 205 719 256.500 719 L 308 719 308 770.500 L 308 822 256.500 822 L 205 822 205 873.500 L 205 925 308 925 L 411 925 411 822 L 411 719 462.500 719 L 514 719 514 822 L 514 925 617.500 925 L 721 925 721 873.500 L 721 822 669.500 822 L 618 822 618 770.500 L 618 719 669.500 719 L 721 719 721 616 L 721 513 772.500 513 L 824 513 824 616.009 L 824 719.018 875.750 718.759 L 927.500 718.500 927.753 564 L 928.007 409.500 876.003 409.768 L 824 410.035 824 358.518 L 824 307 772.500 307 L 721 307 721 255.500 L 721 204 669.500 204 L 618 204 618 152.500 L 618 101 669.500 101 L 721 101 721 50.500 L 721 0 669.500 0 L 618 0 618 50.500 L 618 101 566 101 L 514 101 514 152.500 L 514 204 462.500 204 L 411 204 411 152.500 L 411 101 359.500 101 L 308 101 308 50.500 L 308 0 256.500 0 L 205 0 205 50.500 M 308 358.500 L 308 410 359.500 410 L 411 410 411 358.500 L 411 307 359.500 307 L 308 307 308 358.500 M 514 358.500 L 514 410 566 410 L 618 410 618 358.500 L 618 307 566 307 L 514 307 514 358.500 M 0.488 564.500 C 0.487 649.750, 0.606 684.773, 0.750 642.329 C 0.894 599.884, 0.894 530.134, 0.750 487.329 C 0.606 444.523, 0.488 479.250, 0.488 564.500" stroke="none" fill="#fcdc04" fill-rule="evenodd"/></svg>